<svg xmlns="http://www.w3.org/2000/svg" width="250" height="250" fill="none" viewBox="0 0 250 250">
<!-- SVG created with Arrow, by QuiverAI (https://quiver.ai) -->
  <path d="m233.5 181.2c-14.3-7.1-25.72-11.03-35.69-24.6-12.97-18.78-20.53-36.48-26.61-64.36-0.67-3.06-2.42-3.17-4.54-2.87-8.72 1.27-17.88 7.7-18.02 17.11l-0.03 0.39c-4.6-0.14-10.71 0.25-15.9-2.94-5.56-3.36-7.42-9.13-6.42-14.51 1.3-7.09 1.36-13.4-4.85-16.49-3.19-1.55-6.97-0.81-10.32 1.97-5.05 3.72-8.63 7.22-12.18 11.52-14.75-0.4-26.73 1.81-39.72 13.32-10.87 9.79-18.1 20.18-26.03 30.79 10.75-2.85 27.79-5.81 40.59-4.13l1.64 3.72-8.21 3.97-1.42 1.96 2.15 5.15c-11.79 0.52-23.19 3.85-30.7 12.82-4.3 4.87-8.13 10.91-12.6 16.05l14.1-4.95c-12.67 15.52-21.62 32.7-31.71 55.7 20.22-8.92 35.71-14.9 55.29-27.5l-3.35 12.37c16.34-7.87 29.8-22.47 30.31-43.07l5.66 4.81 6.51-10.5c5.8 12-1.06 29.9-6.37 41.99 11.34-6.3 20.03-12.78 30-20.95 10.24 14.23 22.03 25.3 39.91 33.75l-111.2 5.37 144.2 2.53c13.22 0 26.83-3.25 36.09-11.45 8.75-8.9 9.27-21.23-0.54-26.97zm-66.65-85.28c2.36 8.2 4.29 15.88 6.57 22.8-6.37-8.24-10.17-11.15-18.89-12.57 0.58-5.23 6.41-8.77 12.32-10.23z" fill="url(#paint0_linear_316_2072)"/>
  <path d="m221.9 30.52c-35.72-3.81-70.42 8.67-97.63 36.59l4.54 4.15c14.09-15.18 30.46-25.42 49.09-31.29 10.97 8.44 19.98 18.94 29.31 32.29-6.51 14.8-13.41 25.66-24.28 36.51l1.78 7.04c22.61-22.2 37.19-51.67 37.19-85.29z" fill="url(#paint1_linear_316_2072)"/>
  <path d="m215.9 35.61c-11.11-0.6-20.27 0.7-31 3.5 10 7.43 16.54 15.53 24.16 26.9 4.03-9.3 6.04-19 6.84-30.4z" fill="url(#paint2_linear_316_2072)"/>
  <path d="m233.8 187.1c-10.87 5.98-21.05 3.82-32.75 1.55-10.32-2.1-19.92-4.6-29.95 3.5 15 8.1 31.89 10.85 50 9 4.03-0.45 9.83-1.2 13.53-2.7 3.11-3.6 2.27-8.5-0.83-11.35z" fill="#FEFFFE"/>
  <path d="m127 146c13.36-3.7 24.03-1.3 35.36 10 11.53 11.6 20.52 20.55 37.52 14l2.7-1.3c8.11 6.5 13 9.25 23.5 14.4-8.9 3.15-19.4 0.7-31.7-1.5-11.6-2.5-18.7-0.9-29.2 7.2-13.5-7.7-22.6-25.6-38.18-42.8z" fill="#FEFFFE"/>
  <path d="m104.5 89.26c11.6-12.6 16.3-12.25 16.1-7.45-0.2 3.8-1.9 6.9-1.3 12.1 1.4 10 10.4 18.1 24.3 18.4l9.2-0.2c6.9 0 10.5 3.9 14.4 8.8l-5.6 2.6c-3.9 1.6-2.3 7.1 2 5.4l7.4-2.3 3.7 6.3-6.3 2.7c-3.7 1.6-2.1 7.1 2.4 5.4l7.9-3.2 3.7 5.1-6.5 3.7c-3 1.6-1.4 6.7 3.1 4.6l7.4-3.2 3.4 4.9-5.1 2.8c-3.6 2-1.2 7.1 3.1 5l5.1-2.4 3.8 5.7c-8.9 5.3-16 0.7-24.9-9-13.7-13.7-23.7-20-50-13.7l-4.2-3.1c6.3-17.6-1.8-37.4-13.1-48.95z" fill="#FEFFFE"/>
  <path d="m94.21 92.01c-17.5 0-26.2 5.1-45.5 28.7 8.4-1.7 12.2-1.7 24.1-0.6 4.1-6 6.9-8.8 12.1-12.1 3.2-7 5.1-9.8 9.3-16z" fill="url(#paint3_linear_316_2072)"/>
  <path d="m101 93.61c-3.4 4.2-6.8 9.4-9.3 14.9-1.8 7.3 5.5 13.8 21 26.1 3.3-12.6-1.1-28.6-11.7-41z" fill="#FEFFFE"/>
  <path d="m86.11 115.2c-3.4 2.8-6.1 5.6-5.8 7.4 2.1 10.6 14.7 21.2 29.2 31.4 11.6 7.4 15.5 13.4 22.6 23.6 16.7 22.6 41 35.2 65.8 35.2 10.2 0 19.1-2.2 27.2-5.9-23.1 2.4-42.8-2.3-61-12.2-16.1-8.9-23.2-22.4-36.7-39.6-10.2-12.9-33.9-23.8-41.3-39.9z" fill="#FEFFFE"/>
  <path d="m77.31 136-2.3 2.2 17.1 18.4 3.4-4.2c-6.9-5.2-11.4-9.6-18.2-16.4z" fill="url(#paint4_linear_316_2072)"/>
  <path d="m40.51 159c8.1-8.9 18.6-12.1 32.4-12.7l2.8 1.1c-6.5 2.6-12.5 7.8-16.7 15.9l-9 16.4 17.1-9c7.4-3.4 11.3-7.4 15.2-14.3l1.1 1.7c1.1 12.6-5.8 25.2-13.3 31.7l1.1-13.7c-14.9 13.7-28.6 23.1-51.8 31.8 9.4-19.8 17.8-31.8 34.3-49.3l-13.2 0.4z" fill="url(#paint5_linear_316_2072)"/>
  <path d="m107.6 160.6 13.7 12.1-16 12.1c3.4-10.2 3.9-15.4 2.3-24.2z" fill="url(#paint6_linear_316_2072)"/>
  <defs>
    <linearGradient id="paint0_linear_316_2072" x1="7" x2="241" y1="146.2" y2="146.2" gradientUnits="userSpaceOnUse">
      <stop stop-color="#e8913a" offset="0"/>
      <stop stop-color="#f0b85c" offset="1"/>
    </linearGradient>
    <linearGradient id="paint1_linear_316_2072" x1="124.3" x2="221.9" y1="72.72" y2="72.72" gradientUnits="userSpaceOnUse">
      <stop stop-color="#e8913a" offset="0"/>
      <stop stop-color="#f0b85c" offset="1"/>
    </linearGradient>
    <linearGradient id="paint2_linear_316_2072" x1="184.9" x2="215.9" y1="50.81" y2="50.81" gradientUnits="userSpaceOnUse">
      <stop stop-color="#f0b85c" offset="0"/>
      <stop stop-color="#f5c97a" offset="1"/>
    </linearGradient>
    <linearGradient id="paint3_linear_316_2072" x1="48.71" x2="94.21" y1="106.1" y2="106.1" gradientUnits="userSpaceOnUse">
      <stop stop-color="#e8913a" offset="0"/>
      <stop stop-color="#e99a47" offset="1"/>
    </linearGradient>
    <linearGradient id="paint4_linear_316_2072" x1="75.01" x2="95.51" y1="146.3" y2="146.3" gradientUnits="userSpaceOnUse">
      <stop stop-color="#e8913a" offset="0"/>
      <stop stop-color="#e99a47" offset="1"/>
    </linearGradient>
    <linearGradient id="paint5_linear_316_2072" x1="19.41" x2="83.61" y1="177.1" y2="177.1" gradientUnits="userSpaceOnUse">
      <stop stop-color="#f0b85c" offset="0"/>
      <stop stop-color="#f5c97a" offset="1"/>
    </linearGradient>
    <linearGradient id="paint6_linear_316_2072" x1="105.3" x2="121.3" y1="172.7" y2="172.7" gradientUnits="userSpaceOnUse">
      <stop stop-color="#e8913a" offset="0"/>
      <stop stop-color="#e99a47" offset="1"/>
    </linearGradient>
  </defs>
</svg>